<?xml version="1.0" encoding="utf-8"?>
<!-- Generator: Adobe Illustrator 21.0.0, SVG Export Plug-In . SVG Version: 6.00 Build 0)  -->
<svg version="1.1" id="katman_1" xmlns="http://www.w3.org/2000/svg" xmlns:xlink="http://www.w3.org/1999/xlink" x="0px" y="0px"
	 viewBox="0 0 116.1 36.4" style="enable-background:new 0 0 116.1 36.4;" xml:space="preserve">
<style type="text/css">
	.st0{opacity:0;}
	.st1{fill:#5198F6;}
	.st2{fill:#FFFFFF;}
	.st3{fill:#92CEFF;}
</style>
<g id="SvgjsG1808" transform="scale(1.2921877772819603)">
	<g id="SvgjsG1809" transform="translate(0, 0) scale(0.846144)" class="st0">
		<path class="st1" d="M3.3,0H30c1.8,0,3.3,1.5,3.3,3.3V30c0,1.8-1.5,3.3-3.3,3.3H3.3C1.5,33.3,0,31.8,0,30V3.3C0,1.5,1.5,0,3.3,0z"
			/>
	</g>
	<g id="SvgjsG1864" transform="scale(2.209456473707468)">
		<g id="SvgjsG1865" transform="translate(67.86000061035156, 42.720001220703125) scale(1)">
			<path class="st2" d="M-48.6-36.5v3.2c0.2,0,0.5,0.1,0.8,0.1c0.3,0,0.6,0,0.8-0.1v-3.6c0.3-0.3,0.5-0.4,0.8-0.4
				c0.4,0,0.5,0.3,0.5,0.8v2.3c0,0.3,0.1,0.6,0.2,0.8c0.1,0.2,0.4,0.2,0.7,0.2c0.3,0,0.7-0.1,0.9-0.3c-0.2-0.3-0.3-0.6-0.3-1.1V-37
				c0-0.5-0.1-0.9-0.4-1.2s-0.6-0.5-1.1-0.5s-1,0.3-1.6,0.8c-0.3-0.5-0.7-0.8-1.3-0.8c-0.5,0-1,0.2-1.5,0.7
				c-0.1-0.5-0.4-0.7-0.9-0.7h-0.6l-0.1,0.1v5.3c0.2,0,0.5,0.1,0.8,0.1c0.3,0,0.6,0,0.8-0.1v-3.6c0.3-0.3,0.5-0.4,0.8-0.4
				C-48.8-37.3-48.6-37-48.6-36.5z M-37.2-34c-0.2-0.1-0.3-0.4-0.3-0.7v-2.2c0-0.6-0.2-1.1-0.5-1.4c-0.4-0.3-0.8-0.4-1.3-0.4
				c-0.4,0-0.8,0-1.2,0.1c-0.5,0.1-0.9,0.2-1.2,0.3c0,0.5,0.2,0.9,0.4,1.1c0.8-0.2,1.3-0.3,1.6-0.3c0.5,0,0.7,0.2,0.7,0.7v0.2
				c-0.3,0-0.6,0-0.8,0c-0.6,0-1.1,0.2-1.5,0.5s-0.6,0.8-0.6,1.4c0,0.4,0.1,0.8,0.4,1.1c0.3,0.3,0.7,0.5,1.3,0.5s1.1-0.2,1.5-0.6
				c0.3,0.4,0.6,0.5,1.1,0.6c0.1-0.1,0.2-0.2,0.3-0.4C-37.3-33.7-37.3-33.9-37.2-34z M-40-34.3c-0.2,0-0.3-0.1-0.4-0.2
				c-0.1-0.1-0.1-0.2-0.1-0.4c0-0.5,0.2-0.7,0.7-0.7c0.3,0,0.5,0,0.6,0v0.9C-39.4-34.4-39.7-34.3-40-34.3z M-33.3-34.5
				C-33.4-34.5-33.4-34.5-33.3-34.5c-0.1-0.2-0.1-0.3-0.2-0.7c-0.1-0.3-0.1-0.6-0.2-0.8l-0.5-2c-0.1-0.3-0.2-0.5-0.3-0.6
				c-0.1-0.1-0.3-0.2-0.6-0.2s-0.5,0.1-0.9,0.2l1.3,4.5c0.1,0.3,0.2,0.5,0.4,0.6c0.2,0.1,0.4,0.2,0.8,0.2s0.7,0,1.1-0.1
				c0.3-1,0.8-2.7,1.5-5.2l-0.1-0.1c-0.2-0.1-0.5-0.1-0.8-0.1c-0.3,0-0.5,0-0.6,0.1L-33.3-34.5z M-27.2-37.4c0-0.4-0.1-0.7-0.3-0.9
				c-0.2-0.2-0.5-0.3-0.8-0.3h-0.2c-0.3,0-0.6,0-0.9,0.1c0,0.2-0.1,0.4-0.1,0.6s0,0.4,0.1,0.6h0.2c0.3,0,0.5,0.2,0.5,0.6v3.6
				c0.2,0,0.5,0.1,0.8,0.1s0.6,0,0.8-0.1V-37.4z M-29.1-40.2c0,0.2,0,0.4,0.1,0.6c0.2,0.1,0.4,0.2,0.8,0.2c0.3,0,0.6-0.1,0.8-0.2
				c0.1-0.2,0.1-0.4,0.1-0.6c0-0.2,0-0.4-0.1-0.6c-0.2-0.1-0.4-0.2-0.8-0.2c-0.3,0-0.6,0.1-0.8,0.2C-29.1-40.6-29.1-40.4-29.1-40.2z
				"/>
		</g>
	</g>
</g>
<g>
	<path class="st2" d="M13.3,27.2c0.8-0.4,1.6-0.8,2.3-1.3c0.6-0.4,1.2-0.5,1.9-0.5c2.9,0,5.9,0,8.8,0c2.5,0,4.5-1.7,4.9-4.2
		c0.5-3.2-1.9-5.5-4.5-5.7c-0.5,0-1,0-1.5,0.1c-0.3,0.1-0.4,0-0.5-0.3c-0.3-0.7-0.8-1.4-1.4-2c-1.9-1.9-4.2-2.5-6.8-2
		c-1.4,0.3-2.6,1.1-3.6,2.2c-0.1,0.1-0.2,0.2-0.4,0.1c-0.5-0.2-0.9-0.3-1.4-0.4c-0.2,0-0.2-0.1-0.1-0.3c1.3-1.8,3-2.9,5.1-3.4
		c2.6-0.6,5-0.2,7.2,1.3c1,0.7,1.9,1.5,2.5,2.6c0.1,0.2,0.3,0.3,0.5,0.3c2.4,0,4.4,1,5.7,3c1.6,2.4,1.6,4.9,0.2,7.3
		c-1.3,2.1-3.2,3.2-5.6,3.2c-4.3,0-8.6,0-13,0C13.4,27.2,13.4,27.2,13.3,27.2z"/>
	<path class="st3" d="M27.4,22.3c-0.2,0.1-0.4-0.1-0.6-0.2c-3.2-1.2-6.1-0.6-8.8,1.3c-1.1,0.8-2.2,1.7-3.5,2.4
		c-1.5,0.9-3,1.3-4.7,1.3c-3.5-0.1-6.4-2.8-6.6-6.4c-0.2-3.4,2.3-6.6,5.7-7c2.1-0.3,4,0.2,5.5,1.7c1.2,1.2,1.5,2.6,1,4.3
		c0,0.1,0,0.2-0.1,0.2c-0.1,0-0.1-0.1-0.1-0.2c-0.3-1.3-0.9-2.5-2.1-3.3c-1.5-1.2-3.9-1.3-5.6-0.2c-1.7,1-2.7,2.9-2.4,4.8
		c0.3,2.1,1.5,3.5,3.6,4.2c1.3,0.4,2.5,0.2,3.8-0.3c1.4-0.6,2.7-1.4,4-2.2c1.4-0.8,2.7-1.6,4.3-2c2.2-0.5,4.3,0,6.1,1.3
		C27.1,22.1,27.3,22.1,27.4,22.3z"/>
	<path class="st2" d="M13.8,18.4c-1-1-2.2-1.5-3.6-1.5c-1.8,0.1-3.1,1.2-3.4,2.9c-0.2,1.3,0.3,2.4,1.1,3.4c0.4,0.5,1,0.9,1.6,1.2
		c-1.3,0-3.1-1.2-3.5-3.2c-0.4-2.1,0.7-4,2.8-4.7C11,15.8,13,16.7,13.8,18.4z"/>
</g>
</svg>
