<svg
  xmlns="http://www.w3.org/2000/svg"
  preserveAspectRatio="xMidYMid meet"
  viewBox="1.789169832254467e-12 5.907880904487683e-7 300 72.99188995361328"
  overflow="visible"
>
  <defs id="SvgjsDefs1758"></defs>
  <g id="SvgjsG1759" transform="scale(1.1385059791840537)" opacity="1">
    <g
      id="SvgjsG1760"
      class="kXF-T3kzr"
      transform="translate(0.0007947450935434231, 5.218758433787334e-7) scale(0.7947243317441419)"
      light-content="false"
      non-strokable="false"
      fill="#ffffff"
    >
      <path
        d="M50.235 35.062c5.556 0 11.462-1.786 11.462-5.096v-6.247a2.68 2.68 0 0 0-.068-.603 2.986 2.986 0 0 0-.514-1.096 4.148 4.148 0 0 0-.428-.493 5.677 5.677 0 0 0-.369-.33c-.051-.041-.107-.079-.158-.118a5.716 5.716 0 0 0-.258-.189c-.072-.049-.148-.096-.223-.144-.076-.048-.152-.096-.232-.143-.09-.053-.186-.104-.279-.154a10.312 10.312 0 0 0-.543-.27l-.184-.082c-.129-.056-.26-.111-.393-.164-.051-.02-.1-.038-.148-.058a15.902 15.902 0 0 0-.453-.165l-.104-.035a17.63 17.63 0 0 0-.52-.165 21.308 21.308 0 0 0-3.537-.709 26.312 26.312 0 0 0-1.52-.134h-.001c-.51-.03-1.021-.045-1.53-.045h-.001c-4.861 0-9.99 1.368-11.196 3.928a2.714 2.714 0 0 0-.264 1.169v6.247c0 3.31 5.905 5.096 11.461 5.096zm9.519-5.096c0 1.285-3.707 3.152-9.517 3.152v-4.303c3.593-.001 7.324-.752 9.517-2.176v3.327zM40.76 23.472c.025-.075.064-.152.111-.229.017-.027.04-.054.059-.081.036-.051.072-.102.117-.153a1.83 1.83 0 0 1 .098-.1 2.04 2.04 0 0 1 .278-.247 4.286 4.286 0 0 1 .504-.348c.074-.045.152-.091.234-.136.051-.028.104-.054.156-.082.098-.05.195-.1.301-.148.037-.018.076-.034.114-.051 1.052-.473 2.485-.881 4.229-1.117a24.539 24.539 0 0 1 1.626-.16h.003a25.525 25.525 0 0 1 3.376.003 21.944 21.944 0 0 1 2.724.351c.619.121 1.188.264 1.705.422l.156.049c.25.08.49.163.715.25l.01.004a9.348 9.348 0 0 1 .743.328 7.445 7.445 0 0 1 .532.286c.152.091.285.184.408.276l.098.074c.119.096.229.191.318.287.25.266.381.527.381.768 0 1.286-3.709 3.153-9.518 3.153-.43 0-.843-.013-1.249-.033-.121-.005-.239-.014-.358-.021-.29-.018-.575-.041-.853-.067-.115-.012-.229-.022-.342-.035-.325-.037-.643-.08-.947-.127-.041-.007-.085-.012-.125-.018a18.83 18.83 0 0 1-1.029-.199c-.047-.01-.092-.022-.139-.033a15.307 15.307 0 0 1-.809-.208l-.152-.044c-1.377-.408-2.389-.925-2.963-1.44l-.064-.06c-.051-.049-.102-.098-.146-.146a1.721 1.721 0 0 1-.153-.193c-.02-.028-.033-.056-.049-.083a1.301 1.301 0 0 1-.076-.155c-.01-.024-.02-.048-.027-.072a.812.812 0 0 1-.038-.217.729.729 0 0 1 .041-.248z"
      ></path>
      <path
        d="M99.961 21.099c-.008-.027-.02-.053-.031-.079a.94.94 0 0 0-.133-.242.946.946 0 0 0-.123-.131c-.021-.021-.041-.041-.064-.059-.01-.007-.018-.017-.027-.024a.917.917 0 0 0-.201-.105l-.004-.002-.002-.001-.004-.001-13.277-5.083v-.846c0-.207-.023-.408-.066-.603a2.995 2.995 0 0 0-.516-1.097 4.047 4.047 0 0 0-.428-.493 5.196 5.196 0 0 0-.369-.33c-.049-.041-.105-.079-.158-.118a5.716 5.716 0 0 0-.258-.189c-.072-.049-.148-.096-.223-.144-.076-.048-.15-.096-.232-.143a8.13 8.13 0 0 0-.279-.155 8.63 8.63 0 0 0-.727-.353 11.901 11.901 0 0 0-.393-.164c-.049-.02-.1-.038-.148-.058a15.902 15.902 0 0 0-.453-.165l-.104-.035c-.17-.057-.344-.113-.52-.166a21.267 21.267 0 0 0-3.537-.709 26.135 26.135 0 0 0-3.051-.179h-.002c-1.154 0-2.326.08-3.455.232l-9.713-3.718v-.842c0-.207-.023-.408-.068-.603a2.979 2.979 0 0 0-.514-1.096 4.148 4.148 0 0 0-.428-.493 5.196 5.196 0 0 0-.369-.33c-.051-.041-.107-.079-.158-.118a5.716 5.716 0 0 0-.258-.189c-.072-.049-.148-.096-.223-.144-.076-.048-.152-.096-.232-.143a10.237 10.237 0 0 0-.488-.264 10.312 10.312 0 0 0-.518-.242c-.129-.056-.26-.111-.393-.164-.049-.02-.1-.038-.148-.058a15.902 15.902 0 0 0-.453-.165l-.104-.035a17.63 17.63 0 0 0-.52-.165 21.308 21.308 0 0 0-3.537-.709 26.312 26.312 0 0 0-1.52-.134h-.001A26.05 26.05 0 0 0 50.001 0H50c-4.861 0-9.99 1.368-11.196 3.928a2.715 2.715 0 0 0-.265 1.169v.601l-9.787 3.688c.058.007.114.017.171.025-.09-.012-.179-.027-.27-.038a26.156 26.156 0 0 0-1.52-.134h-.001c-.51-.03-1.021-.045-1.53-.045h-.001c-4.86 0-9.99 1.368-11.196 3.927a2.721 2.721 0 0 0-.264 1.169v.601L.63 19.981a.96.96 0 0 0-.211.109c-.01.007-.017.016-.026.023-.024.018-.043.038-.065.059a.943.943 0 0 0-.257.37c-.011.026-.023.053-.031.081a.943.943 0 0 0-.04.255l-.001.01v39.955c0 .402.249.764.624.907l49.263 18.857c.008.004.018.002.027.006.104.035.211.059.32.059a.958.958 0 0 0 .316-.057c.008-.004.018-.002.025-.006l48.794-18.386a.963.963 0 0 0 .632-.906V21.363c0-.091-.016-.179-.039-.264zm-28.584-9.513c.25-.033.506-.063.768-.089l.031-.003c.264-.026.533-.048.809-.065h.002a25.558 25.558 0 0 1 3.376.002 21.971 21.971 0 0 1 2.722.351c.619.121 1.188.264 1.705.422l.156.049a14.024 14.024 0 0 1 .725.254 10.254 10.254 0 0 1 .742.328c.186.091.361.183.52.277l.012.009a5.116 5.116 0 0 1 .506.35c.119.096.23.191.32.287.248.266.379.527.379.769 0 1.286-3.707 3.153-9.518 3.153-.43 0-.844-.013-1.248-.033-.123-.005-.24-.014-.359-.021a27.2 27.2 0 0 1-.854-.067c-.113-.011-.229-.022-.34-.035-.326-.037-.643-.08-.949-.128-.039-.007-.084-.011-.123-.018a18.647 18.647 0 0 1-1.029-.199l-.141-.033a17.257 17.257 0 0 1-.809-.208l-.15-.044c-1.377-.408-2.391-.925-2.965-1.44-.021-.02-.043-.04-.062-.06a2.01 2.01 0 0 1-.298-.339c-.02-.028-.033-.056-.049-.083a1.164 1.164 0 0 1-.103-.227.803.803 0 0 1-.037-.217c0-.081.016-.163.043-.247.025-.075.064-.152.111-.229.016-.027.039-.054.059-.081.035-.051.072-.102.117-.153.029-.034.064-.067.098-.101a2.296 2.296 0 0 1 .278-.247c.051-.04.102-.08.156-.12.059-.042.119-.083.184-.125.051-.034.107-.068.164-.103.074-.045.152-.091.234-.136l.156-.082a6.043 6.043 0 0 1 .416-.2c1.051-.473 2.484-.881 4.229-1.116a.07.07 0 0 1 .016-.002zm12.773 5.86v3.327c0 1.285-3.707 3.153-9.516 3.153v-4.303c3.593-.002 7.323-.753 9.516-2.177zM40.526 4.85c.025-.075.064-.152.111-.229.017-.027.04-.054.059-.081.036-.051.072-.102.117-.153.029-.033.064-.067.097-.1.044-.045.09-.09.141-.135.043-.038.09-.075.137-.112.051-.04.102-.08.157-.12a4.837 4.837 0 0 1 .347-.227 6.94 6.94 0 0 1 .234-.136l.156-.082c.098-.05.195-.1.301-.148.037-.018.076-.034.115-.051 1.051-.473 2.484-.881 4.229-1.117a24.539 24.539 0 0 1 1.626-.16h.003a25.462 25.462 0 0 1 3.374.002 21.944 21.944 0 0 1 2.724.351c.619.12 1.188.264 1.705.422l.156.049a12.867 12.867 0 0 1 .725.254 9.63 9.63 0 0 1 1.274.614c.152.091.285.184.408.276l.098.074c.119.096.23.191.318.287.25.266.381.527.381.768 0 1.286-3.707 3.153-9.518 3.153-.43 0-.843-.013-1.249-.033-.121-.005-.239-.014-.358-.021-.29-.018-.575-.041-.853-.067-.115-.012-.229-.022-.342-.035-.325-.037-.642-.08-.947-.128-.041-.006-.084-.011-.125-.018a18.83 18.83 0 0 1-1.029-.199c-.047-.01-.092-.022-.139-.033a15.307 15.307 0 0 1-.809-.208l-.152-.044c-1.377-.408-2.389-.925-2.963-1.44a1.83 1.83 0 0 1-.063-.06c-.051-.049-.103-.098-.146-.146a1.721 1.721 0 0 1-.153-.193c-.019-.028-.033-.056-.049-.083a1.301 1.301 0 0 1-.076-.155c-.01-.024-.02-.048-.027-.072a.812.812 0 0 1-.038-.217c0-.08.015-.163.043-.247zM59.52 8.017v3.327c0 1.285-3.707 3.152-9.517 3.152v-4.303c3.593-.001 7.323-.752 9.517-2.176zM29.819 9.542c-.053-.009-.104-.02-.156-.028.053.009.104.02.156.028zm.792.148l-.021-.005.021.005zm-14.482 4.353c.025-.075.064-.152.111-.229.017-.026.04-.053.059-.08.036-.051.072-.102.117-.153.029-.033.064-.067.097-.101.044-.044.089-.089.141-.134.042-.038.089-.075.137-.112a3.398 3.398 0 0 1 .34-.245 5.885 5.885 0 0 1 .399-.238l.156-.082c.097-.05.195-.1.301-.148.037-.018.076-.034.114-.051 1.052-.474 2.485-.881 4.229-1.117a22.23 22.23 0 0 1 1.626-.159h.003a25.533 25.533 0 0 1 3.376.002c.926.062 1.781.174 2.562.32l.162.031c.619.12 1.188.264 1.704.422l.157.049c.25.08.491.163.715.25l.009.004c.216.084.415.173.605.262l.138.066c.185.091.361.184.518.277l.013.009c.151.091.285.183.409.276l.096.074c.119.096.23.191.32.286.249.266.38.528.38.769 0 1.286-3.708 3.153-9.518 3.153-.43 0-.843-.013-1.249-.033-.122-.005-.239-.014-.358-.021a24.203 24.203 0 0 1-.853-.068c-.114-.011-.229-.022-.341-.035-.325-.037-.642-.08-.948-.128-.041-.006-.084-.011-.125-.018-.359-.059-.7-.125-1.029-.199-.048-.01-.092-.022-.139-.033a15.563 15.563 0 0 1-.809-.208l-.151-.044c-1.377-.408-2.39-.925-2.964-1.44a1.83 1.83 0 0 1-.063-.06 2.24 2.24 0 0 1-.299-.339c-.02-.028-.033-.056-.049-.084a1.301 1.301 0 0 1-.076-.155c-.01-.024-.02-.048-.027-.072a.806.806 0 0 1-.038-.217.754.754 0 0 1 .042-.247zm18.994 3.167v3.327c0 1.285-3.707 3.152-9.517 3.152v-4.303c3.593 0 7.322-.751 9.517-2.176zm-20.98-.244v3.571c0 3.31 5.905 5.096 11.46 5.096 5.557 0 11.462-1.787 11.462-5.096V14.29c0-.207-.023-.408-.067-.603a2.995 2.995 0 0 0-.514-1.096 4.156 4.156 0 0 0-.428-.494 4.971 4.971 0 0 0-.37-.329c-.049-.041-.106-.079-.158-.119a5.668 5.668 0 0 0-.481-.332c-.076-.048-.151-.096-.231-.143-.09-.053-.185-.104-.28-.155a8.145 8.145 0 0 0-.543-.269 11.84 11.84 0 0 0-.576-.247l-.148-.058a17.103 17.103 0 0 0-.453-.165c-.035-.012-.07-.022-.104-.035-.13-.043-.264-.085-.398-.127l6.227-2.346v3.57c0 3.31 5.905 5.096 11.46 5.096 5.556 0 11.462-1.787 11.462-5.096v-3.32l6.254 2.394c-2.064.663-3.672 1.649-4.279 2.94a2.688 2.688 0 0 0-.266 1.169v6.246c0 3.31 5.904 5.096 11.459 5.096 5.559 0 11.463-1.786 11.463-5.096V17.45l10.199 3.904-32.922 12.407-13.134 4.949-21.186-8.11-25.343-9.702 10.435-3.932zm83.914 43.679L51.206 78.298V40.419l46.851-17.652v37.878z"
      ></path>
    </g>
    <g
      id="SvgjsG1761"
      class="text"
      transform="translate(183.5032262414877, 52.09099969482422) scale(1)"
      light-content="false"
      fill="#ffffff"
    >
      <path
        d="M-44.48 -17.5L-44.48 0L-34.56 0L-34.56 -39.92L-48.96 -39.92L-57.12 -11.59L-57.34 -11.59L-65.65 -39.92L-80.03 -39.92L-80.03 0L-70.47 0L-70.47 -17.32C-70.47 -20.19 -70.66 -24 -71.05 -28.76L-70.8 -28.76L-62.65 0L-52.36 0L-44.32 -28.7L-44.08 -28.7C-44.34 -23.54 -44.48 -19.81 -44.48 -17.5Z M16.31 0L3.14 -40.07L-11.27 -40.07L-24.28 0L-12.42 0L-10.42 -7.49L2.57 -7.49L4.51 0ZM-8.17 -16.32C-5.79 -25.26 -4.39 -30.98 -3.99 -33.49C-3.62 -31.51 -2.19 -25.78 0.32 -16.32Z M39.48 -10.28C39.35 -12.12 38.74 -15.26 37.63 -19.69L32.2 -39.92L20.06 -39.92L33.08 0L45.79 0L58.86 -39.92L46.79 -39.92L41.24 -19.57C40.26 -15.7 39.68 -12.61 39.48 -10.28Z M80 0L80 -39.92L69.17 -39.92L69.17 0Z"
      ></path>
    </g>
  </g>
</svg>
