<?xml version="1.0" encoding="utf-8"?>
<!-- Generator: Adobe Illustrator 21.0.0, SVG Export Plug-In . SVG Version: 6.00 Build 0)  -->
<svg version="1.1" id="katman_1" xmlns="http://www.w3.org/2000/svg" xmlns:xlink="http://www.w3.org/1999/xlink" x="0px" y="0px"
	 viewBox="0 0 19.4 19.4" style="enable-background:new 0 0 19.4 19.4;" xml:space="preserve">
<style type="text/css">
	.st0{fill:#4F96F6;}
	.st1{fill:#FFFFFF;}
</style>
<g>
	<g id="SvgjsG1390" transform="translate(-7.105427357601002e-15, -7.105427357601002e-15) scale(1.06848)">
		<path class="st0" d="M4.4,0h13.8v13.8c0,2.4-2,4.4-4.4,4.4H0V4.4C0,2,2,0,4.4,0z"/>
	</g>
	<g>
		<path class="st1" d="M4.6,14.2c-1.4-0.7-2.3-1.8-2.5-3.3C1.8,9.4,2.3,8.2,3.5,7.3C3.9,7,4.4,6.9,4.8,6.7C4.9,6.6,5,6.5,5.1,6.4
			c1.3-2.3,4.3-2.5,5.8-0.4c0.1,0.1,0.2,0.3,0.2,0.4c0.6-0.3,1.1-0.4,1.8-0.3c0.8,0.1,1.3,0.6,1.8,1.3c0.1,0.1,0.2,0.2,0.3,0.3
			c0.9,0.8,1.4,1.7,1.4,2.9c0.1,2-1.4,3.7-3.3,4c-1.4,0.3-3.1-0.3-3.9-1.6c0,0,0,0-0.1-0.1c0,0-0.1,0.1-0.1,0.1
			C8,14.6,6.1,14.9,4.6,14.2 M6,7c-0.1,0-0.1,0.1-0.1,0.1c0,0,0,0-0.1,0C5.2,7,4.7,7.1,4.2,7.5C3.6,7.9,3.2,8.5,3,9.1
			c-0.2,0.4-0.3,0.8-0.3,1.2c-0.1,0.8,0.3,1.6,0.8,2.2c1.4,1.7,3.7,1.7,5,0.2c0.8-0.9,0.8-2.3,0-3.2c-0.7-0.8-2.2-1.2-3-0.1
			c-0.8,1.1-0.2,2.4,0.9,2.6c0,0,0.1,0,0.1,0c-0.1,0-0.1,0.1-0.1,0.1c-1.1,0-1.9-1-1.7-2.1C4.8,8.9,5.8,8.1,7,8.1
			c1.1,0,2.2,0.8,2.6,1.8c0.3,0.8,0.3,1.6,0,2.4c-0.1,0.2-0.1,0.3,0.1,0.4c0.2,0.2,0.4,0.4,0.6,0.6c1,0.8,2.1,1,3.2,0.6
			c1.5-0.5,2.4-1.9,2.2-3.5c-0.1-1-0.5-1.9-1.4-2.4c-0.5-0.3-1.1-0.5-1.7-0.7c-0.1,0-0.2-0.1-0.3-0.1c0.6-0.2,1.1-0.1,1.7,0.1
			c-0.6-0.6-1.7-1-2.5-0.5c-0.2,0.1-0.3,0.2-0.3,0.4c0,0.1,0,0.2-0.1,0.3c0,0-0.1,0-0.1,0c-0.2-0.3-0.4-0.6-0.5-0.9
			c-0.9-1.7-3-2.2-4.4-0.8C5.8,6,5.5,6.4,5.4,6.8C5.6,6.9,5.8,6.9,6,7z"/>
	</g>
</g>
</svg>
