<?xml version="1.0" encoding="utf-8"?>
<!-- Generator: Adobe Illustrator 21.0.0, SVG Export Plug-In . SVG Version: 6.00 Build 0)  -->
<svg version="1.1" id="katman_1" xmlns="http://www.w3.org/2000/svg" xmlns:xlink="http://www.w3.org/1999/xlink" x="0px" y="0px"
	 viewBox="0 0 36.4 36.4" style="enable-background:new 0 0 36.4 36.4;" xml:space="preserve">
<style type="text/css">
	.st0{fill:#5198F6;}
	.st1{fill:#FFFFFF;}
</style>
<g id="SvgjsG1808" transform="scale(1.2921877772819603)">
	<path class="st0" d="M2.8,0h22.6c1.5,0,2.8,1.3,2.8,2.8v22.6c0,1.5-1.3,2.8-2.8,2.8H2.8c-1.5,0-2.8-1.3-2.8-2.8V2.8
		C0,1.3,1.3,0,2.8,0z"/>
</g>
<g>
	<path class="st1" d="M13.3,27.2c0.8-0.4,1.6-0.8,2.3-1.3c0.6-0.4,1.2-0.5,1.9-0.5c2.9,0,5.9,0,8.8,0c2.5,0,4.5-1.7,4.9-4.2
		c0.5-3.2-1.9-5.5-4.5-5.7c-0.5,0-1,0-1.5,0.1c-0.3,0.1-0.4,0-0.5-0.3c-0.3-0.7-0.8-1.4-1.4-2c-1.9-1.9-4.2-2.5-6.8-2
		c-1.4,0.3-2.6,1.1-3.6,2.2c-0.1,0.1-0.2,0.2-0.4,0.1c-0.5-0.2-0.9-0.3-1.4-0.4c-0.2,0-0.2-0.1-0.1-0.3c1.3-1.8,3-2.9,5.1-3.4
		c2.6-0.6,5-0.2,7.2,1.3c1,0.7,1.9,1.5,2.5,2.6c0.1,0.2,0.3,0.3,0.5,0.3c2.4,0,4.4,1,5.7,3c1.6,2.4,1.6,4.9,0.2,7.3
		c-1.3,2.1-3.2,3.2-5.6,3.2c-4.3,0-8.6,0-13,0C13.4,27.2,13.4,27.2,13.3,27.2z"/>
	<path class="st1" d="M27.4,22.3c-0.2,0.1-0.4-0.1-0.6-0.2c-3.2-1.2-6.1-0.6-8.8,1.3c-1.1,0.8-2.2,1.7-3.5,2.4
		c-1.5,0.9-3,1.3-4.7,1.3c-3.5-0.1-6.4-2.8-6.6-6.4c-0.2-3.4,2.3-6.6,5.7-7c2.1-0.3,4,0.2,5.5,1.7c1.2,1.2,1.5,2.6,1,4.3
		c0,0.1,0,0.2-0.1,0.2s-0.1-0.1-0.1-0.2c-0.3-1.3-0.9-2.5-2.1-3.3c-1.5-1.2-3.9-1.3-5.6-0.2c-1.7,1-2.7,2.9-2.4,4.8
		c0.3,2.1,1.5,3.5,3.6,4.2c1.3,0.4,2.5,0.2,3.8-0.3c1.4-0.6,2.7-1.4,4-2.2c1.4-0.8,2.7-1.6,4.3-2c2.2-0.5,4.3,0,6.1,1.3
		C27.1,22.1,27.3,22.1,27.4,22.3z"/>
	<path class="st1" d="M13.8,18.4c-1-1-2.2-1.5-3.6-1.5c-1.8,0.1-3.1,1.2-3.4,2.9c-0.2,1.3,0.3,2.4,1.1,3.4c0.4,0.5,1,0.9,1.6,1.2
		c-1.3,0-3.1-1.2-3.5-3.2c-0.4-2.1,0.7-4,2.8-4.7C11,15.8,13,16.7,13.8,18.4z"/>
</g>
</svg>
